<svg width="30" height="26" viewBox="0 0 30 26" fill="none" xmlns="http://www.w3.org/2000/svg">
<path d="M1.00052 7.455C1.12955 6.93396 1.27026 6.4176 1.58984 5.97236C2.28845 4.99986 3.23759 4.50608 4.43076 4.50141C6.20676 4.4944 7.98276 4.50219 9.75876 4.49544C9.93556 4.49466 10.1214 4.46195 10.2876 4.40094C13.284 3.30174 16.2781 2.19554 19.273 1.09141C19.7691 0.908648 19.914 0.98056 20.0814 1.48447C20.1847 1.79548 20.2907 2.10572 20.3963 2.41595C20.4018 2.43179 20.4174 2.44425 20.4446 2.48007C21.1009 2.27316 21.7663 2.0647 22.4309 1.85337C23.2892 1.58078 23.3107 1.59143 23.542 2.47332C23.7175 3.1426 23.8912 3.8124 24.069 4.49492C24.7069 4.49569 25.3123 4.60785 25.8588 4.93028C27.0174 5.61358 27.5878 6.63904 27.5909 7.98305C27.5933 9.02357 27.5948 10.0641 27.5883 11.1046C27.5873 11.2734 27.6353 11.3525 27.7997 11.4242C28.5338 11.7433 28.9567 12.3165 28.9778 13.1182C29.0074 14.2399 29.0076 15.3638 28.9773 16.4856C28.9557 17.2878 28.5305 17.861 27.7945 18.1754C27.6221 18.2491 27.5891 18.3369 27.5891 18.4989C27.5891 19.6487 27.6125 20.7998 27.5699 21.9483C27.5079 23.6218 26.0979 25.006 24.4268 25.0893C24.3178 25.0948 24.2082 25.0958 24.0989 25.0958C17.5593 25.0961 11.02 25.0984 4.48035 25.0943C3.01043 25.0932 1.93849 24.4221 1.30063 23.0937C1.15758 22.7957 1.09813 22.4571 1 22.1371C1.00052 17.2426 1.00052 12.3487 1.00052 7.455ZM26.7568 11.2752C26.7568 11.1451 26.7568 11.0548 26.7568 10.9644C26.7568 9.9966 26.7578 9.02902 26.7565 8.06119C26.7542 6.40877 25.6877 5.33242 24.0413 5.3319C17.5458 5.32983 11.0501 5.33009 4.5546 5.33476C4.29317 5.33502 4.02265 5.35579 3.77161 5.42355C2.5382 5.75611 1.83153 6.70914 1.83076 8.03108C1.8279 12.541 1.82842 17.0513 1.83335 21.5612C1.83361 21.8144 1.85438 22.0758 1.9198 22.3188C2.25262 23.554 3.2054 24.264 4.52188 24.2646C11.0358 24.2666 17.5494 24.2664 24.0633 24.262C24.3159 24.2617 24.5771 24.242 24.8193 24.1766C26.0312 23.8487 26.7433 22.9169 26.7547 21.6511C26.7641 20.6196 26.7571 19.5877 26.756 18.5562C26.756 18.4867 26.743 18.4171 26.734 18.3236C26.6114 18.3236 26.5034 18.3236 26.3957 18.3236C24.1272 18.3236 21.8582 18.2953 19.5905 18.3343C18.2576 18.3574 17.4627 17.449 17.505 16.2522C17.5406 15.2493 17.498 14.2436 17.5209 13.2399C17.5279 12.9284 17.5777 12.5922 17.707 12.3136C18.0497 11.5756 18.6756 11.2713 19.4773 11.2736C21.7821 11.2799 24.087 11.2757 26.392 11.2757C26.4993 11.2752 26.607 11.2752 26.7568 11.2752ZM23.2419 17.4874C24.4808 17.4874 25.7194 17.4895 26.9583 17.4866C27.7272 17.4848 28.1566 17.0536 28.1592 16.2802C28.1626 15.2945 28.1623 14.3085 28.1592 13.3227C28.1566 12.5359 27.7262 12.1093 26.9372 12.1088C24.4779 12.1078 22.0186 12.1075 19.5593 12.1088C18.7748 12.1093 18.3477 12.5374 18.3446 13.33C18.341 14.3067 18.3412 15.2833 18.3446 16.26C18.3472 17.0663 18.7712 17.4859 19.5804 17.4869C20.8008 17.4887 22.0212 17.4874 23.2419 17.4874ZM12.6012 4.44273C12.6025 4.45597 12.6036 4.46921 12.6049 4.48271C15.1267 4.48271 17.6483 4.48271 20.1962 4.48271C19.9127 3.62782 19.6367 2.79576 19.3558 1.94865C17.0801 2.78901 14.8406 3.61587 12.6012 4.44273ZM20.6764 3.28591C20.8187 3.71271 20.9477 4.09953 21.076 4.48375C21.7884 4.48375 22.4844 4.48375 23.2032 4.48375C23.0412 3.86017 22.8844 3.25709 22.723 2.63532C22.029 2.85599 21.3655 3.0668 20.6764 3.28591Z" fill="#493931" stroke="#493931" stroke-width="0.6"/>
<path d="M19.205 14.7719C19.2203 13.9157 19.9449 13.2059 20.7912 13.2184C21.6589 13.2311 22.3827 13.9752 22.3541 14.8251C22.3248 15.6938 21.6134 16.3901 20.7655 16.3794C19.8997 16.3683 19.1894 15.6369 19.205 14.7719ZM21.5135 14.8002C21.5148 14.3853 21.1835 14.0533 20.772 14.0569C20.3751 14.0603 20.0433 14.3869 20.0337 14.7833C20.0241 15.1849 20.3647 15.537 20.7692 15.5432C21.1752 15.5494 21.5124 15.213 21.5135 14.8002Z" fill="#493931" stroke="#493931" stroke-width="0.6"/>
</svg>
