<svg width="28" height="28" viewBox="0 0 28 28" fill="none" xmlns="http://www.w3.org/2000/svg">
<g clip-path="url(#clip0_248_98)">
<path d="M0 14.8719C0 14.2886 0 13.7055 0 13.1221C0.042 12.7802 0.0775185 12.4374 0.126778 12.0968C0.567259 9.04582 1.85396 6.40604 4.01385 4.20648C6.10945 2.07252 8.63541 0.733444 11.5863 0.214926C12.0952 0.125481 12.6101 0.0707778 13.1221 0C13.7055 0 14.2886 0 14.8719 0C15.3484 0.0622222 15.8278 0.10837 16.3012 0.189259C18.9303 0.638037 21.2561 1.73833 23.248 3.51037C25.6835 5.67726 27.2069 8.36889 27.7791 11.5855C27.8696 12.0944 27.9233 12.6099 27.994 13.1221C27.994 13.7055 27.994 14.2886 27.994 14.8719C27.9785 14.9421 27.9539 15.0116 27.9487 15.0827C27.7838 17.2617 27.1535 19.2998 26.0099 21.1584C23.7868 24.7714 20.586 26.9936 16.407 27.7796C15.8999 27.875 15.3837 27.9235 14.8719 27.994C14.2886 27.994 13.7055 27.994 13.1221 27.994C12.7807 27.9518 12.4385 27.915 12.0978 27.8665C9.50652 27.497 7.18252 26.5028 5.16315 24.8363C2.5003 22.6388 0.840519 19.838 0.218296 16.4355C0.123667 15.9183 0.0718148 15.3933 0 14.8719ZM26.1302 14.0005C26.1344 7.31915 20.6754 1.85993 13.994 1.86356C7.31915 1.86719 1.88222 7.29763 1.86381 13.979C1.84567 20.6523 7.29867 26.1183 13.986 26.1305C20.6624 26.1424 26.1261 20.685 26.1302 14.0005Z" fill="#493931"/>
<path d="M13.0656 10.268C13.0656 9.02895 13.061 7.78969 13.0677 6.55069C13.0713 5.91136 13.6287 5.48021 14.2336 5.63214C14.657 5.73843 14.9266 6.10529 14.9274 6.59295C14.9297 7.97792 14.9282 9.36288 14.9284 10.7476C14.9284 11.5948 14.9349 12.4424 14.9235 13.2896C14.9209 13.4848 14.988 13.6012 15.1374 13.7197C16.4933 14.7951 17.844 15.8773 19.1932 16.9612C19.642 17.3216 19.7203 17.9024 19.3877 18.3138C19.0512 18.7302 18.4842 18.7771 18.0247 18.4123C17.0759 17.6592 16.1324 16.8993 15.1869 16.142C14.6181 15.6865 14.0516 15.2281 13.4792 14.7772C13.1929 14.552 13.061 14.2694 13.063 13.9033C13.07 12.6915 13.0656 11.4797 13.0656 10.268Z" fill="#493931"/>
</g>
<defs>
<clipPath id="clip0_248_98">
<rect width="28" height="28" fill="white"/>
</clipPath>
</defs>
</svg>
