<svg width="98" height="65" viewBox="0 0 98 65" fill="none" xmlns="http://www.w3.org/2000/svg">
<path d="M0.106195 46.9113C0.212337 46.6083 0.424621 46.5578 0.689975 46.5578C2.06981 46.5578 3.50272 46.5578 4.88256 46.5578C5.14792 46.5578 5.25406 46.6083 5.25406 46.9113C5.25406 47.1133 5.25406 47.3657 5.25406 47.5677C5.25406 47.7697 5.14792 47.8707 4.88256 47.8707C3.87422 47.8707 2.91895 47.8707 1.9106 47.8707C1.80446 47.8707 1.75139 47.8707 1.64525 47.8707C1.64525 48.5777 1.64525 49.2341 1.64525 49.8906C1.9106 49.8906 2.17595 49.8906 2.44131 49.8906C2.97202 49.9411 3.50272 49.8906 4.03343 49.9916C4.9887 50.1431 5.62555 50.85 5.73169 51.8094C5.89091 52.8194 5.46634 53.7788 4.67028 54.2333C4.13957 54.5363 3.55579 54.6372 2.91894 54.6877C2.12288 54.6877 1.32682 54.6877 0.530761 54.6877C0.265407 54.6877 0.106195 54.5363 5.34058e-05 54.3343C0.106195 51.8599 0.106195 49.3856 0.106195 46.9113ZM1.69832 53.4253C2.12288 53.4253 2.49438 53.4253 2.86587 53.4253C2.97202 53.4253 3.13123 53.4253 3.23737 53.3748C3.82115 53.2738 4.13957 52.8699 4.19264 52.2639C4.19264 51.658 3.92729 51.2035 3.34351 51.1025C3.02509 51.052 2.65359 51.052 2.2821 51.052C2.06981 51.052 1.9106 51.052 1.69832 51.052C1.69832 51.9104 1.69832 52.6679 1.69832 53.4253Z" fill="#6A4D3E"/>
<path d="M58.2717 20.5016C58.6432 20.3501 59.174 20.1481 59.8108 19.9966C60.6069 19.7946 66.8161 18.1787 70.7964 22.168C72.1232 23.5314 73.1846 25.2987 73.6623 27.5711C74.7767 32.8227 71.6986 37.4684 67.6122 39.2358C65.8078 39.9932 64.0034 40.5487 62.0928 40.9527C59.5454 41.5081 56.8919 41.8616 54.2914 42.0636C51.691 42.2656 49.0905 42.3161 46.49 42.2656C42.5628 42.1646 38.6356 41.8111 34.8145 40.8517C32.7978 40.3467 30.8342 39.6903 29.0298 38.7308C26.0047 37.1654 24.3065 34.5901 23.7227 31.2573C23.3512 29.0355 23.5104 26.9146 24.3595 24.8443C25.6332 21.865 27.8622 20.1481 30.9934 19.4412C31.8425 19.2392 33.8592 18.7847 36.0882 19.4412C37.1496 19.7441 38.954 20.5016 38.954 20.5016C38.954 20.5016 39.8031 19.3402 40.5992 18.4817C40.9707 18.0777 41.5014 17.5223 42.2444 16.9163C43.4119 16.0074 44.7918 15.4014 46.3308 15.048C49.1436 14.3915 51.744 14.9975 54.2384 16.3609C54.5037 16.5124 54.8752 16.7143 55.3529 17.0678C56.8388 18.1787 57.741 19.5926 58.2717 20.5016ZM49.8335 40.1447C51.9033 40.1447 55.0875 39.9427 58.2717 39.4378C60.6069 39.0843 62.8889 38.5288 65.1179 37.7714C66.71 37.2159 68.1429 36.509 69.3635 35.3476C71.221 33.5297 72.0701 31.3078 71.7517 28.682C71.4864 26.5612 70.478 24.7938 68.939 23.3294C67.6122 22.1175 66.0731 21.4105 64.2687 21.3095C62.5705 21.2085 60.9253 21.663 59.3862 22.4204C59.3332 22.4709 59.5985 26.7631 59.3862 27.8236C59.1209 29.0355 58.7494 30.2474 58.1125 31.3078C57.7941 31.8633 57.3695 32.3178 56.8388 32.6207C56.4143 32.8732 55.9897 33.0247 55.5121 32.9742C54.8752 32.8732 54.3445 32.5198 53.973 32.0148C53.4423 31.3078 53.23 30.4999 53.177 29.6415C53.177 29.2375 53.0708 27.6216 54.0792 25.5007C54.0792 25.5007 54.5037 24.5918 56.4673 21.7135C56.4673 21.7135 55.3529 19.6936 53.7077 18.4817C51.9033 17.1183 49.7804 17.0173 49.0905 16.9668C46.8085 16.8153 44.7918 17.5728 42.9874 18.9867C42.0321 19.6936 40.8645 21.966 40.8645 21.966C40.8645 21.966 41.0238 22.1175 41.6606 23.0769C42.5097 24.3393 42.9874 24.9453 43.1997 25.5007C43.5181 26.3592 43.7834 27.2176 43.9426 28.1266C44.1019 29.086 44.1549 30.0454 43.9426 30.9544C43.7304 31.9138 43.1997 32.6207 42.2444 32.8732C41.8198 32.9742 41.3953 32.9742 41.0238 32.8732C40.44 32.7217 40.1216 32.3683 39.7501 32.0653C39.5378 31.8633 39.0601 31.3583 38.6356 30.4999C37.7864 28.783 37.7864 27.0156 37.7864 25.8037C37.7864 23.7839 37.9457 22.5214 37.9457 22.5214C37.9457 22.5214 36.2474 21.5115 34.3368 21.36C33.5408 21.3095 32.957 21.4105 32.5324 21.461C29.8789 21.966 27.8622 23.4809 26.5885 25.8542C24.9964 28.7325 25.1556 31.6108 27.0662 34.3376C28.1806 35.9535 29.7197 36.9634 31.5772 37.6199C34.1246 38.5288 36.7781 39.0843 39.4316 39.4883C42.4567 39.9427 45.5878 40.1447 49.8335 40.1447ZM41.8198 30.7524C41.979 30.1969 42.2444 28.8335 41.7668 27.2681C41.2891 25.7532 40.3869 24.8443 40.0154 24.4403C39.8562 25.0463 39.6439 26.3087 40.0685 27.8236C40.4931 29.3385 41.3953 30.3484 41.8198 30.7524ZM55.459 30.7019C55.8305 30.3484 56.6796 29.49 57.1042 28.0761C57.5818 26.4602 57.2634 25.0968 57.1042 24.5918C56.6796 24.9958 55.2998 26.4097 55.1936 28.6315C55.1406 29.49 55.2998 30.1969 55.459 30.7019Z" fill="#6A4D3E"/>
<path d="M93.192 52.3649C93.2451 52.2639 93.2981 52.1629 93.2981 52.1124C93.8819 50.547 94.4657 48.9311 95.0495 47.3657C95.2617 46.7598 95.5271 46.5578 96.1639 46.5578C96.4824 46.5578 96.8539 46.5578 97.1723 46.5578C97.5969 46.5578 97.8091 46.7598 97.8091 47.2143C97.8091 49.6381 97.8091 52.0114 97.8091 54.4353C97.8091 54.5868 97.7561 54.6877 97.5969 54.6877C97.2254 54.6877 96.8539 54.6877 96.4824 54.6877C96.2701 54.6877 96.2701 54.5363 96.2701 54.3343C96.2701 52.7689 96.2701 51.153 96.2701 49.5876C96.2701 49.0321 96.2701 48.5272 96.2701 47.9717C96.2701 47.9717 96.2701 47.9717 96.217 47.9717C96.217 48.0222 96.1639 48.0727 96.1639 48.1232C95.474 50.1936 94.731 52.2134 94.0411 54.2838C93.935 54.5363 93.7758 54.6877 93.5104 54.6877C93.4573 54.6877 93.4573 54.6877 93.4043 54.6877C92.449 54.7382 92.3959 54.6877 92.1306 53.8293C91.4937 51.9104 90.8569 50.0421 90.22 48.1232C90.22 48.0727 90.1669 48.0222 90.1139 47.9717C90.1139 48.0727 90.1139 48.1232 90.1139 48.2242C90.1139 50.244 90.1139 52.2639 90.1139 54.2838C90.1139 54.6372 90.1139 54.6877 89.7424 54.6877C89.424 54.6877 89.1586 54.6877 88.8402 54.6877C88.681 54.6877 88.5748 54.5867 88.5748 54.3848C88.5748 52.0114 88.5748 49.5876 88.5748 47.2143C88.5748 46.7598 88.7871 46.5578 89.2117 46.5578C89.6362 46.5578 90.0608 46.5578 90.4854 46.5578C90.963 46.5578 91.2284 46.8608 91.3876 47.3152C91.7591 48.3252 92.0775 49.3351 92.449 50.345C92.7143 51.0015 92.9797 51.6579 93.192 52.3649Z" fill="#6A4D3E"/>
<path d="M52.1687 52.3144C52.381 51.658 52.6464 51.052 52.8586 50.3955C53.2301 49.3856 53.6016 48.3252 53.9731 47.3152C54.1854 46.7093 54.4508 46.5578 55.0876 46.5578C55.406 46.5578 55.7775 46.5578 56.096 46.5578C56.5205 46.5578 56.7328 46.7598 56.7328 47.2143C56.7328 49.5876 56.7328 52.0114 56.7328 54.3848C56.7328 54.5363 56.6797 54.6877 56.5205 54.6877C56.149 54.6877 55.8306 54.6877 55.4591 54.6877C55.2468 54.6877 55.1938 54.4858 55.1938 54.3343C55.1938 52.3144 55.1938 50.244 55.1938 48.2242C55.1938 48.1232 55.1938 48.0727 55.1938 47.9717C55.1938 47.9717 55.1938 47.9717 55.1407 47.9717C55.1407 48.0222 55.0876 48.0727 55.0876 48.1232C54.3977 50.1936 53.6547 52.2639 52.9648 54.3343C52.8586 54.5867 52.6994 54.7382 52.4341 54.7382C52.1687 54.7382 51.9034 54.7382 51.638 54.7382C51.4257 54.7382 51.3196 54.5867 51.2135 54.3848C50.5235 52.3144 49.8336 50.244 49.1437 48.1737C49.1437 48.1232 49.0906 48.0727 49.0376 48.0222C49.0376 48.0727 49.0376 48.1737 49.0376 48.2242C49.0376 50.244 49.0376 52.3144 49.0376 54.3343C49.0376 54.6877 48.9845 54.7382 48.6661 54.7382C48.4007 54.7382 48.0823 54.7382 47.7639 54.7382C47.5516 54.7382 47.4985 54.6372 47.4985 54.3848C47.4985 52.0114 47.4985 49.6381 47.4985 47.3152C47.4985 46.8103 47.7108 46.6083 48.1884 46.6083C48.613 46.6083 49.0376 46.6083 49.4091 46.6083C49.8867 46.6083 50.152 46.9113 50.3113 47.3657C50.6827 48.4262 51.0542 49.4866 51.4257 50.4965C51.638 51.1025 51.8503 51.7084 52.0626 52.3144C52.1687 52.3144 52.1687 52.3144 52.1687 52.3144Z" fill="#6A4D3E"/>
<path d="M79.7654 50.6985C79.8185 49.9411 79.8715 49.1836 80.1899 48.4767C80.7207 47.2647 81.6759 46.6083 82.9496 46.4063C83.5334 46.3053 84.1172 46.3558 84.754 46.4568C85.9747 46.7093 86.7177 47.4667 87.0361 48.6282C87.3545 49.8401 87.3545 51.052 87.0361 52.2639C86.6115 53.7788 85.444 54.6877 83.7988 54.7382C83.3211 54.7382 82.7904 54.7382 82.3128 54.6372C80.986 54.3848 80.243 53.5263 79.9246 52.2134C79.8185 51.7589 79.8185 51.254 79.7654 50.6985ZM85.6032 50.6985C85.5501 50.1935 85.5501 49.7896 85.444 49.4361C85.3378 48.7291 85.0194 48.1232 84.3295 47.8707C83.1619 47.4667 81.9944 47.8707 81.6229 49.2341C81.3575 50.1935 81.4106 51.153 81.6229 52.0619C81.729 52.5164 81.9944 52.9204 82.4189 53.1728C83.5334 53.8293 84.9132 53.3243 85.3378 52.1124C85.497 51.6579 85.5501 51.1025 85.6032 50.6985Z" fill="#6A4D3E"/>
<path d="M76.8464 47.9212C76.2627 47.9212 75.732 47.9212 75.1482 47.9212C75.0951 48.4767 74.989 49.0826 74.9359 49.6381C74.7767 50.749 74.6175 51.9104 74.1929 52.9709C74.0868 53.2738 73.9275 53.6273 73.7153 53.9303C73.2907 54.6373 72.5477 54.8392 71.7517 54.7887C71.5924 54.7887 71.4863 54.6877 71.4863 54.5363C71.4863 54.2333 71.4863 53.8798 71.4863 53.5768C71.4863 53.4758 71.6455 53.3243 71.6986 53.3243C72.1231 53.3243 72.3885 53.0719 72.4946 52.7184C72.7069 52.2134 72.8661 51.7085 72.9723 51.153C73.1846 49.7896 73.3968 48.4262 73.5561 47.0628C73.6091 46.6083 73.7153 46.5073 74.1929 46.5073C75.3605 46.5073 76.5811 46.5073 77.7486 46.5073C78.2263 46.5073 78.3324 46.6588 78.3324 47.1133C78.3324 49.5371 78.3324 51.9104 78.3324 54.3343C78.3324 54.5363 78.2263 54.6372 78.0671 54.6372C77.7486 54.6372 77.4302 54.6877 77.1118 54.6372C76.7934 54.6372 76.7934 54.5363 76.7934 54.2333C76.7934 52.2134 76.7934 50.1936 76.7934 48.1232C76.8464 48.1232 76.8464 48.0222 76.8464 47.9212Z" fill="#6A4D3E"/>
<path d="M17.3541 47.9212C16.7703 47.9212 16.2396 47.9212 15.6558 47.9212C15.6027 48.3757 15.5497 48.8301 15.4966 49.2846C15.3374 50.547 15.1251 51.8094 14.7005 52.9709C14.5413 53.3748 14.3821 53.7283 14.1168 54.0818C13.6922 54.7382 13.0023 54.8392 12.2593 54.7887C12.1532 54.7887 12.047 54.6372 12.047 54.5362C11.9939 54.2333 12.047 53.8798 12.047 53.5768C12.047 53.4253 12.1001 53.3243 12.3124 53.3243C12.6839 53.3243 12.9492 53.1223 13.0554 52.8194C13.2676 52.2639 13.4799 51.7084 13.5861 51.153C13.7983 49.7896 14.0106 48.4767 14.1698 47.1133C14.2229 46.6588 14.3291 46.6083 14.7536 46.6083C15.9742 46.6083 17.1418 46.6083 18.3624 46.6083C18.787 46.6083 18.9462 46.7598 18.9462 47.1638C18.9462 49.5876 18.9462 52.0114 18.9462 54.4353C18.9462 54.6372 18.8401 54.7382 18.6809 54.7382C18.3094 54.7382 17.9909 54.7382 17.6194 54.7382C17.4072 54.7382 17.301 54.5867 17.301 54.3848C17.301 52.3649 17.301 50.2945 17.301 48.2747C17.3541 48.1232 17.3541 48.0222 17.3541 47.9212Z" fill="#6A4D3E"/>
<path d="M22.2368 51.2035C22.2368 51.6075 22.2368 52.0114 22.2368 52.4154C22.2368 53.0214 22.2368 53.6778 22.2368 54.2838C22.2368 54.5363 22.1837 54.6372 21.9184 54.6372C21.5999 54.6372 21.2815 54.6372 20.9631 54.6372C20.7508 54.6372 20.6447 54.5363 20.6447 54.2838C20.6447 51.8094 20.6447 49.3351 20.6447 46.8608C20.6447 46.6588 20.7508 46.5073 20.9631 46.5073C21.2815 46.5073 21.653 46.5073 21.9714 46.5073C22.1837 46.5073 22.2899 46.6083 22.2899 46.8608C22.2899 47.7697 22.2899 48.6282 22.2899 49.5371C22.2899 49.6381 22.2899 49.6886 22.2899 49.7896C22.9798 49.9411 23.5105 49.7391 23.7758 49.1331C23.9881 48.6787 24.1473 48.1737 24.3065 47.7192C24.4127 47.4162 24.5188 47.1638 24.5719 46.8608C24.625 46.6588 24.7311 46.5578 24.9434 46.5578C25.3149 46.5578 25.6333 46.5578 26.0048 46.5578C26.2702 46.5578 26.3232 46.6588 26.2702 46.9113C26.2702 47.0123 26.2171 47.0628 26.2171 47.1638C25.9517 47.8202 25.7395 48.4767 25.4741 49.1331C25.2618 49.6886 24.9434 50.1936 24.3065 50.3955C24.3596 50.446 24.4127 50.4965 24.4658 50.4965C24.8372 50.6985 25.1557 51.0015 25.368 51.4055C25.7925 52.3649 26.164 53.3243 26.5355 54.2838C26.6417 54.5868 26.5355 54.6877 26.2702 54.6877C25.9517 54.6877 25.5802 54.6877 25.2618 54.6877C25.0495 54.6877 24.8903 54.5868 24.8372 54.3343C24.625 53.7283 24.4127 53.0719 24.2004 52.4659C24.0943 52.2134 23.9881 51.9609 23.8289 51.7085C23.3513 51.2035 22.8206 51.153 22.2368 51.2035Z" fill="#6A4D3E"/>
<path d="M62.0929 46.5578C62.3052 46.5578 62.4113 46.6588 62.4644 46.8608C63.2604 49.2846 64.1096 51.658 64.9056 54.0818C65.1179 54.6372 65.0118 54.7382 64.428 54.7382C64.1626 54.7382 63.8973 54.7382 63.6319 54.7382C63.4197 54.7382 63.3135 54.6373 63.2604 54.4353C63.1012 53.9808 62.942 53.5263 62.8359 53.0214C62.7828 52.9204 62.7297 52.8699 62.6236 52.8699C61.7214 52.8699 60.8723 52.8699 59.9701 52.8699C59.8108 52.8699 59.8108 52.9204 59.7578 53.0214C59.5986 53.4758 59.4924 53.9303 59.3332 54.3848C59.2801 54.5868 59.174 54.6877 58.9617 54.6877C58.6433 54.6877 58.3249 54.6877 58.0595 54.6877C57.7942 54.6877 57.7411 54.5868 57.7942 54.3343C57.7942 54.2333 57.8472 54.1323 57.9003 53.9808C58.6964 51.6075 59.4924 49.2846 60.2885 46.9113C60.3946 46.6588 60.5538 46.5073 60.8192 46.5073C61.0315 46.5073 61.2438 46.5073 61.456 46.5073C61.403 46.5073 61.8806 46.5073 62.0929 46.5578ZM62.4113 51.557C62.0398 50.3955 61.6683 49.2846 61.2968 48.1232H61.2438C60.8723 49.2341 60.5538 50.3955 60.1823 51.5065C60.9784 51.557 61.6683 51.557 62.4113 51.557Z" fill="#6A4D3E"/>
<path d="M33.4344 54.7382C32.6384 54.7382 32.6384 54.7382 32.373 53.9808C32.2669 53.6778 32.1607 53.3243 32.0546 53.0214C32.0015 52.9204 31.9485 52.8699 31.8423 52.8699C30.9401 52.8699 30.091 52.8699 29.1888 52.8699C29.0826 52.8699 29.0296 52.9204 28.9765 53.0214C28.8173 53.4758 28.7111 53.9303 28.5519 54.3848C28.4989 54.5867 28.3927 54.6877 28.1274 54.7382C27.8089 54.7382 27.4905 54.7382 27.2252 54.7382C27.0129 54.7382 26.9067 54.6372 27.0129 54.3848C27.2252 53.7283 27.4374 53.0214 27.6497 52.3649C28.2335 50.5975 28.8704 48.7796 29.4541 47.0123C29.5603 46.7093 29.7195 46.5578 29.9848 46.5578C30.4094 46.5578 30.834 46.5578 31.2585 46.5578C31.4708 46.5578 31.63 46.6588 31.6831 46.9113C32.4792 49.2846 33.2752 51.6579 34.0713 54.0818C34.2836 54.6877 34.2305 54.7382 33.5936 54.7887C33.5936 54.7382 33.4875 54.7382 33.4344 54.7382ZM30.5686 48.1737C30.144 49.2846 29.8256 50.446 29.4541 51.557C30.1971 51.557 30.9401 51.557 31.6831 51.557C31.2585 50.3955 30.9401 49.2846 30.5686 48.1737Z" fill="#6A4D3E"/>
<path d="M9.65884 50.9005C10.1365 49.5876 10.6141 48.2747 11.0917 46.9618C11.1979 46.6588 11.3571 46.5073 11.7286 46.5073C11.994 46.5073 12.2593 46.5073 12.5247 46.5073C12.8431 46.5073 12.8962 46.6588 12.79 46.9618C12.5247 47.6687 12.2593 48.3757 11.9409 49.1331C11.4632 50.345 11.0387 51.557 10.508 52.7184C10.3488 53.1224 10.1365 53.5263 9.92419 53.8798C9.39348 54.6877 8.22593 54.9907 7.32373 54.6372C7.16451 54.5363 7.0053 54.4353 7.0053 54.2333C7.0053 53.9303 7.0053 53.5768 7.0053 53.2738C7.0053 53.0214 7.11144 53.0214 7.32373 53.1224C7.42987 53.1729 7.53601 53.2233 7.64215 53.2738C8.17286 53.4253 8.70357 53.1224 8.80971 52.6174C8.80971 52.5669 8.75663 52.4659 8.75663 52.3649C7.96057 50.648 7.11144 48.9816 6.31538 47.2648C6.26231 47.1133 6.20924 46.9618 6.15617 46.8608C6.1031 46.6588 6.20924 46.5578 6.36845 46.5578C6.73995 46.5578 7.16451 46.5578 7.53601 46.5578C7.74829 46.5578 7.80136 46.7093 7.9075 46.9113C8.49128 48.2242 9.07506 49.5371 9.65884 50.85C9.60577 50.85 9.60577 50.85 9.65884 50.9005Z" fill="#6A4D3E"/>
<path d="M68.9387 46.4063C69.5756 46.4063 70.1594 46.5578 70.6901 46.8608C70.9554 47.0123 71.1146 47.2647 71.1146 47.5677C71.1146 47.7697 71.1146 47.9717 71.1146 48.2242C71.0616 48.5272 70.9554 48.5777 70.6901 48.4262C70.3186 48.1737 69.9471 47.9212 69.4694 47.8707C68.5142 47.7192 67.7181 48.0727 67.3466 48.9816C66.869 50.0926 66.869 51.2035 67.3466 52.3144C67.8242 53.4758 68.9918 53.6273 69.8409 53.3243C70.1593 53.2233 70.4247 53.0214 70.7431 52.8699C71.0085 52.7184 71.1146 52.7689 71.1146 53.0719C71.2208 54.1323 71.1146 54.2838 70.2124 54.6372C69.3633 54.9907 68.4611 54.9907 67.5589 54.6877C66.4975 54.3343 65.8606 53.5768 65.5422 52.5164C65.2238 51.355 65.2238 50.1431 65.5953 48.9816C66.0729 47.3152 67.2935 46.4568 68.9387 46.4063Z" fill="#6A4D3E"/>
<path d="M37.6801 50.749C37.6801 49.8906 37.8394 49.0826 38.2109 48.3252C38.8477 47.0628 40.1214 46.3558 41.5543 46.4063C42.1381 46.4568 42.6688 46.5578 43.1464 46.8608C43.4118 47.0123 43.5179 47.2143 43.5179 47.5172C43.5179 47.7697 43.5179 47.9717 43.5179 48.2242C43.4649 48.5272 43.3587 48.5777 43.0934 48.4262C42.7219 48.1737 42.3504 47.9717 41.9258 47.8707C40.9705 47.6687 40.1745 48.0727 39.803 48.9816C39.3784 50.0926 39.3784 51.2035 39.803 52.2639C40.2806 53.4758 41.4482 53.5768 42.3504 53.2738C42.6688 53.1728 42.9341 53.0214 43.1995 52.8194C43.5179 52.6679 43.6241 52.6679 43.6241 53.0214C43.6241 53.2233 43.6241 53.4253 43.6241 53.5768C43.6241 53.8798 43.4649 54.1323 43.1995 54.2838C41.9258 54.9402 40.6521 54.9402 39.3784 54.2333C38.4762 53.7283 38.0516 52.8194 37.8924 51.8599C37.7332 51.557 37.7332 51.153 37.6801 50.749Z" fill="#6A4D3E"/>
<path d="M50.948 0.252483C51.2664 0.555462 51.1603 1.06043 51.1603 1.21192C51.1072 1.5149 50.948 1.76738 50.6826 2.07036C50.3642 2.42383 49.9927 2.72681 49.7274 3.13078C49.3559 3.63575 49.4089 3.53476 49.7274 4.03972C49.8335 4.24171 50.0458 4.3932 50.205 4.54469C50.6826 4.99916 51.0541 5.50412 51.1072 6.16058C51.1603 6.61505 51.0541 7.01902 50.8418 7.37249C50.6296 7.72597 50.3642 8.02895 50.0458 8.33193C49.7274 8.6854 49.462 9.03888 49.3028 9.44285C49.0374 10.0993 49.0374 10.0488 48.4006 9.94782C48.3475 9.94782 48.2414 9.94782 48.1883 9.89732C47.6576 9.74583 47.4453 9.44285 47.6045 8.88739C47.7107 8.58441 47.8168 8.28143 47.976 8.02895C48.3475 7.52398 48.719 7.01902 49.0905 6.51405C49.1967 6.36256 49.1967 6.26157 49.1436 6.16058C48.9844 5.95859 48.8782 5.8071 48.719 5.60511C48.5598 5.45362 48.4537 5.30214 48.2945 5.15065C47.3392 4.2922 47.4453 2.67632 48.2945 1.91887C48.6659 1.56539 49.0374 1.26241 49.1967 0.757448C49.1967 0.706951 49.1967 0.706951 49.2497 0.656455C49.2497 0.656455 49.3028 0.504965 49.3559 0.403972C49.4089 0.302979 49.7274 0 50.1519 0C50.3642 0 50.6826 0 50.948 0.252483Z" fill="#6A4D3E"/>
<path d="M58.4841 7.01902C59.0148 7.57448 59.3332 8.12994 59.5985 8.48342C59.917 8.98838 59.97 9.13987 59.97 9.34186C59.97 9.64484 59.7578 9.94782 59.3863 10.5033C59.3332 10.5538 58.2187 12.0687 58.1656 12.1697C58.0595 12.2707 57.8472 12.4726 57.5288 12.4726C57.1573 12.4726 56.945 12.1697 56.8919 12.1192C56.6797 11.8162 56.6797 11.4627 56.6797 11.3617C56.6797 11.1092 56.7858 10.9577 56.8919 10.8063C57.1573 10.4023 57.3165 10.3518 57.7411 9.79633C57.7941 9.69533 57.9003 9.54385 57.9003 9.39236C57.9003 9.19037 57.7941 9.03888 57.7411 8.93789C57.4226 8.38243 57.0512 8.12994 56.7858 7.67547C56.7327 7.57448 56.6266 7.42299 56.5735 7.17051C56.5735 7.06952 56.5735 6.96852 56.5735 6.86753C56.5735 6.56455 56.7327 6.36256 56.945 6.05958C57.7411 4.99916 58.2187 4.54469 58.6963 4.24171C58.8556 4.14072 59.0678 3.98923 59.3332 4.03972C59.5985 4.09022 59.7047 4.3427 59.7047 4.3427C59.8108 4.49419 59.8108 4.69618 59.7578 4.89817C59.6516 5.25164 59.4924 5.60512 59.2801 5.9081C59.1209 6.31207 58.8025 6.66554 58.4841 7.01902Z" fill="#6A4D3E"/>
<path d="M38.5297 10.5033C38.6358 10.3518 39.1135 9.74583 39.3258 9.54384C39.4319 9.44285 39.4319 9.34185 39.3258 9.24086C39.0604 8.93788 38.8481 8.6854 38.5828 8.38242C38.2113 7.87745 38.0521 7.32199 38.1582 6.71603C38.1582 6.61504 38.2113 6.51405 38.2644 6.46355C38.7951 5.7061 39.3258 4.94866 39.8565 4.19121C39.9095 4.14071 40.0157 4.03972 40.1218 4.03972C40.3872 4.09022 40.6525 4.14071 40.8648 4.19121C41.1832 4.3427 41.3425 4.59518 41.2363 4.94866C41.1302 5.25163 41.024 5.55461 40.8648 5.8071C40.5995 6.21107 40.3341 6.56455 40.0157 6.86752C39.9095 6.96852 39.9095 7.06951 39.9626 7.1705C40.1218 7.37249 40.281 7.57448 40.4403 7.72596C41.2894 8.53391 41.3955 9.74583 40.6525 10.6548C40.3341 11.0587 40.0688 11.4627 39.7503 11.8667C39.5911 12.0182 39.485 12.2202 39.3258 12.3716C39.0604 12.6241 38.5297 12.4221 38.2644 12.1192C38.0521 11.8667 38.0521 11.5637 38.0521 11.4122C38.1582 11.0082 38.4236 10.7053 38.5297 10.5033Z" fill="#6A4D3E"/>
<path d="M81.4105 30.3484C81.4105 32.0148 81.4105 33.7317 81.4105 35.3981C81.4105 35.5495 81.3574 35.7515 81.3044 35.903C81.1982 36.105 81.039 36.2565 80.7737 36.2565C80.5614 36.2565 80.3491 36.105 80.296 35.903C80.2429 35.7515 80.1899 35.6 80.1899 35.4485C80.1899 32.0148 80.1899 28.6315 80.1899 25.1978C80.1899 24.7433 80.4552 24.4403 80.7737 24.4403C81.1452 24.4403 81.4105 24.7433 81.4105 25.2483C81.4105 26.9146 81.4105 28.6315 81.4105 30.3484Z" fill="#6A4D3E"/>
<path d="M18.5217 30.2979C18.5217 31.9643 18.5217 33.6307 18.5217 35.3476C18.5217 35.499 18.4686 35.701 18.4155 35.8525C18.3094 36.0545 18.1502 36.206 17.8848 36.206C17.6195 36.206 17.4603 36.0545 17.3541 35.8525C17.3011 35.701 17.248 35.5495 17.248 35.3981C17.248 32.0148 17.248 28.581 17.248 25.1978C17.248 24.7433 17.5133 24.4403 17.8318 24.4403C18.2033 24.4403 18.4155 24.7433 18.4155 25.1978C18.5217 26.8641 18.5217 28.581 18.5217 30.2979Z" fill="#6A4D3E"/>
<path d="M90.3795 32.2168C90.0611 33.2267 88.9997 33.6307 88.0444 33.1762C87.6198 32.9742 87.4075 32.6207 87.3014 32.2168C87.0891 31.3583 87.0891 30.4494 87.3014 29.591C87.6198 28.581 88.6282 28.0761 89.5834 28.5305C90.008 28.7325 90.2733 29.086 90.3795 29.5405C90.4856 29.8939 90.4856 31.7623 90.3795 32.2168ZM89.4242 29.5405C89.3712 29.288 89.1589 29.1365 88.8935 29.1365C88.6282 29.1365 88.4159 29.2375 88.3097 29.49C88.2567 29.6414 88.2036 29.7424 88.2036 29.8939C88.2036 30.4494 88.1505 31.0554 88.1505 31.6108C88.1505 31.8128 88.2036 32.0148 88.2567 32.2168C88.3628 32.4693 88.522 32.5702 88.7874 32.5702C89.1058 32.5702 89.3181 32.4188 89.3711 32.1158C89.5304 31.7118 89.5304 29.9444 89.4242 29.5405Z" fill="#6A4D3E"/>
<path d="M97.0134 30.7019C97.0665 30.7019 97.0665 30.7019 97.0665 30.7524C97.5441 30.8534 97.9156 31.1564 97.9687 31.6613C98.0748 32.2168 97.9156 32.6713 97.438 32.9742C96.8542 33.4287 95.6336 33.4792 94.9967 33.0752C94.8375 32.9742 94.7314 32.4693 94.8375 32.3178C94.8906 32.2673 94.9967 32.2673 95.0498 32.3178C95.4213 32.5198 95.8459 32.6208 96.2704 32.5703C96.6419 32.5198 96.8542 32.2673 96.8542 31.9643C96.8542 31.6108 96.695 31.3584 96.3235 31.2574C96.0581 31.2069 95.7928 31.2069 95.5274 31.2069C95.3151 31.2069 95.2621 31.1059 95.209 30.9039C95.209 30.4999 95.209 30.4999 95.6336 30.4494C95.8459 30.4494 96.0051 30.4494 96.2173 30.3989C96.5888 30.2979 96.7481 29.9949 96.695 29.6415C96.6419 29.3385 96.4296 29.1365 96.0581 29.187C95.7928 29.2375 95.4744 29.3385 95.209 29.49C94.9967 29.591 94.9436 29.591 94.9436 29.3385C94.8906 28.9345 94.9967 28.8335 95.3682 28.6315C95.8989 28.3791 96.4296 28.3286 96.9603 28.48C97.491 28.6315 97.7564 28.985 97.8095 29.49C97.8625 30.0959 97.6503 30.4999 97.1196 30.7524C97.1196 30.7019 97.0665 30.7019 97.0134 30.7019Z" fill="#6A4D3E"/>
<path d="M5.78486 29.086C5.78486 29.187 5.78486 29.2375 5.78486 29.3385C5.78486 29.6415 5.78486 29.9444 5.78486 30.2979C6.05022 30.2979 6.2625 30.2979 6.52785 30.2979C6.68707 30.2979 6.84628 30.2979 7.00549 30.2979C7.32391 30.2979 7.37698 30.3484 7.37698 30.6514C7.37698 31.0049 7.37698 31.0049 7.00549 31.0554C6.58092 31.0554 6.20943 31.0554 5.78486 31.0554C5.78486 31.5098 5.78486 31.9643 5.78486 32.4188C5.78486 32.4188 7.37698 32.4188 7.5362 32.4188C7.5362 32.4188 7.58927 32.4188 7.64234 32.4693C7.64234 32.5198 7.64234 32.5703 7.64234 32.6713C7.64234 32.9742 7.64234 33.0247 7.58927 33.0752C7.5362 33.1257 7.48313 33.1257 7.43005 33.1257C6.68706 33.1257 5.94407 33.1257 5.14801 33.1257C4.93573 33.1257 4.82959 33.0247 4.82959 32.7723C4.82959 31.4088 4.82959 29.9949 4.82959 28.6315C4.82959 28.3791 4.93573 28.2781 5.14801 28.2781C5.891 28.2781 6.63399 28.2781 7.37698 28.2781C7.5362 28.2781 7.58927 28.3286 7.64234 28.48C7.64234 28.5305 7.64234 28.581 7.64234 28.581C7.64234 28.985 7.64234 28.985 7.27084 28.985C6.74014 29.086 6.2625 29.086 5.78486 29.086Z" fill="#6A4D3E"/>
<path d="M84.701 32.4693C85.2317 32.4693 85.7094 32.4693 86.2401 32.4693C86.3462 32.4693 86.6116 32.4693 86.6116 32.5703C86.6646 32.7723 86.6646 32.9742 86.6646 33.1762C86.6646 33.2267 86.5585 33.2772 86.5054 33.2772C85.6032 33.2772 84.701 33.2772 83.8519 33.2772C83.6927 33.2772 83.5865 33.1762 83.5865 33.0247C83.5335 32.7218 83.5865 32.4693 83.8519 32.2168C84.1703 31.8633 84.5418 31.5098 84.8602 31.1564C85.1787 30.8029 85.3909 30.4494 85.444 29.9949C85.4971 29.5405 85.2317 29.2375 84.7541 29.288C84.4887 29.3385 84.2234 29.4395 83.958 29.5405C83.7457 29.6415 83.6927 29.6415 83.6927 29.389C83.6396 28.884 83.6927 28.7325 84.1703 28.581C84.6479 28.3791 85.1256 28.3286 85.6563 28.4296C86.2401 28.581 86.6116 29.0355 86.6116 29.6415C86.6116 30.0454 86.5054 30.4494 86.2931 30.7524C86.0278 31.1059 85.7624 31.4593 85.444 31.7623C85.2317 31.9643 85.0194 32.1663 84.7541 32.3683C84.6479 32.4188 84.6479 32.4188 84.701 32.4693Z" fill="#6A4D3E"/>
<path d="M92.237 32.4693C92.8208 32.4693 93.3515 32.4693 93.8822 32.4693C93.9884 32.4693 94.2007 32.5198 94.2007 32.5703C94.2537 32.7722 94.2007 32.9742 94.2007 33.1762C94.2007 33.2267 94.0945 33.2267 94.0414 33.2267C93.1392 33.2267 92.2901 33.2267 91.3879 33.2267C91.1756 33.2267 91.1225 33.1257 91.0695 32.9237C91.0695 32.6208 91.1225 32.3178 91.3348 32.1158C91.6533 31.8128 91.9186 31.4593 92.237 31.1564C92.5024 30.8534 92.7677 30.4999 92.8739 30.0959C93.0331 29.4395 92.6616 29.086 92.0247 29.2375C91.8125 29.288 91.6002 29.389 91.441 29.49C91.2287 29.591 91.2287 29.591 91.1756 29.3385C91.1225 28.783 91.1756 28.682 91.7063 28.48C92.0778 28.3286 92.4493 28.2781 92.8739 28.3286C93.7761 28.379 94.2537 29.086 94.0414 29.9949C93.9884 30.2979 93.8292 30.6514 93.6169 30.9039C93.2984 31.3583 92.8739 31.7623 92.5024 32.1663C92.3962 32.2673 92.3432 32.3683 92.237 32.4693Z" fill="#6A4D3E"/>
<path d="M10.7202 28.48C10.9325 28.5305 11.0387 29.1365 10.8795 29.288C10.8264 29.3385 10.7202 29.288 10.6672 29.288C10.4018 29.187 10.1365 29.086 9.81804 29.0355C9.60575 28.985 9.39347 29.0355 9.23426 29.2375C9.07505 29.4395 9.12812 29.692 9.3404 29.8939C9.49961 30.0454 9.7119 30.1464 9.92418 30.2474C10.1365 30.3484 10.3487 30.4494 10.561 30.5504C11.0387 30.8029 11.2509 31.2069 11.2509 31.7623C11.2509 32.3683 10.9856 32.7723 10.4549 33.0247C9.76497 33.3277 9.12812 33.2772 8.4382 32.9742C8.17285 32.8732 8.0667 32.3683 8.17285 32.1158C8.22592 31.9643 8.33206 32.0653 8.4382 32.1158C8.75662 32.2168 9.07505 32.3683 9.39347 32.4188C9.60575 32.4693 9.81804 32.4188 9.97725 32.3178C10.2957 32.1663 10.3487 31.7118 10.0834 31.4593C9.97725 31.3584 9.81804 31.2574 9.65883 31.2069C9.44654 31.1059 9.23426 31.0049 9.02198 30.9039C8.38513 30.5504 8.11978 29.9949 8.27899 29.3385C8.4382 28.7325 8.91584 28.3286 9.60576 28.2781C9.65883 28.2781 9.76497 28.2781 9.81804 28.2781C9.81804 28.2781 10.4549 28.3791 10.7202 28.48Z" fill="#6A4D3E"/>
<path d="M12.737 29.1365C12.3655 29.1365 11.994 29.1365 11.6756 29.1365C11.5164 29.1365 11.4633 29.086 11.4103 28.9345C11.3572 28.4296 11.4103 28.3791 11.8879 28.3791C12.8432 28.3791 13.7454 28.3791 14.7007 28.3791C15.0191 28.3791 15.0191 28.4296 15.0191 28.7325C15.0191 28.783 15.0191 28.8335 15.0191 28.8335C15.0191 29.1365 14.966 29.187 14.7007 29.187C14.3822 29.187 14.0638 29.187 13.6923 29.187C13.6923 29.288 13.6923 29.389 13.6923 29.4395C13.6923 30.6009 13.6923 31.7118 13.6923 32.8732C13.6923 33.1762 13.6923 33.1762 13.3739 33.2267C12.737 33.2772 12.684 33.2772 12.684 32.6208C12.684 31.5603 12.684 30.5504 12.684 29.49C12.737 29.3385 12.737 29.288 12.737 29.1365Z" fill="#6A4D3E"/>
<path d="M24.041 60.6463C24.2533 60.6463 24.7309 60.6463 25.2085 60.9493C25.2085 60.9493 25.527 61.1008 25.8454 61.5048C25.9515 61.6563 25.9515 61.7572 25.8454 61.9087C25.6862 62.2117 25.4208 62.4642 25.0493 62.5652C24.2002 62.9187 23.3511 62.8682 22.5019 62.5147C22.1835 62.3632 21.9712 62.1612 21.812 61.8582C21.7589 61.7572 21.7589 61.6563 21.812 61.5048C21.9182 61.3533 22.0243 61.2018 22.1835 61.1008C22.7142 60.6968 23.4041 60.6463 23.5634 60.5958C23.7226 60.6968 23.8287 60.6463 24.041 60.6463Z" fill="#6A4D3E"/>
<path d="M75.4139 60.8988C75.6792 60.9998 75.8915 61.1513 76.2099 61.4543C76.4753 61.7067 76.4222 61.8077 76.2099 62.0602C76.0507 62.2117 75.8915 62.4137 75.6792 62.5147C74.8301 62.9187 73.9279 62.9692 73.0257 62.5652C72.7073 62.4137 72.495 62.2117 72.2827 61.9087C72.2296 61.8582 72.2296 61.8077 72.2296 61.7572C72.2296 61.6563 72.2827 61.6058 72.2827 61.5553C72.7604 60.9493 73.5033 60.7473 73.5033 60.7473C73.6095 60.7473 74.4586 60.4948 75.4139 60.8988Z" fill="#6A4D3E"/>
<path d="M58.5901 62.1612C59.7577 61.9088 60.766 62.3127 61.4029 63.3732C61.6682 63.8781 61.9336 64.3831 62.1989 64.8881C61.0314 65.2415 59.9169 64.7366 59.3862 63.6761C59.1208 63.1207 58.8555 62.6662 58.5901 62.1612Z" fill="#6A4D3E"/>
<path d="M39.5907 62.1612C39.2723 62.7672 38.9539 63.3731 38.6355 63.9791C38.3701 64.5346 37.8925 64.8375 37.3087 64.888C36.8841 64.9385 36.4596 64.888 35.9819 64.888C36.3003 64.2821 36.6188 63.6256 36.9903 63.0702C37.6271 62.1612 38.5824 62.0097 39.5907 62.1612Z" fill="#6A4D3E"/>
<path d="M36.6721 61.3533C35.7699 61.5048 34.9738 61.4038 34.337 60.6968C34.0716 60.3938 33.8594 60.0909 33.6471 59.7374C33.4348 59.3839 33.2756 58.9799 33.0633 58.6265C33.0633 58.6265 33.0633 58.6265 33.0633 58.576C33.6471 58.5255 34.2308 58.576 34.8146 58.7275C35.2923 58.879 35.5576 59.1819 35.7699 59.6364C35.9822 60.1414 36.1945 60.6463 36.566 61.0503C36.6721 61.1513 36.6721 61.2523 36.6721 61.3533Z" fill="#6A4D3E"/>
<path d="M61.509 61.3533C61.5621 61.2523 61.5621 61.1513 61.6151 61.1008C61.8274 60.7473 62.0928 60.3938 62.1989 59.9899C62.5173 59.0809 63.1542 58.677 64.0564 58.677C64.3748 58.677 64.7463 58.677 65.1178 58.677C64.7463 59.3334 64.4279 59.9899 64.0033 60.5958C63.4726 61.3028 62.4112 61.6058 61.509 61.3533Z" fill="#6A4D3E"/>
<path d="M30.8872 61.3533C30.3565 61.4038 29.8257 61.4038 29.3481 61.2523C28.9766 61.1513 28.6051 60.9493 28.3928 60.5958C27.9683 59.9394 27.5968 59.2829 27.2253 58.6265C27.9152 58.6265 28.552 58.576 29.1889 58.8285C29.5073 58.9294 29.6665 59.1819 29.8257 59.4344C30.1972 60.0404 30.5157 60.6968 30.8872 61.3028V61.3533Z" fill="#6A4D3E"/>
<path d="M45.3757 61.3533C43.9428 61.5553 42.8814 61.0503 42.2976 59.6364C42.1384 59.2829 41.9792 58.98 41.7669 58.6265C42.4037 58.6265 43.0936 58.576 43.6774 58.879C43.9428 59.0304 44.2081 59.2324 44.3673 59.4849C44.7919 60.0404 45.0573 60.6968 45.3757 61.3533Z" fill="#6A4D3E"/>
<path d="M70.9556 58.576C70.531 59.3334 70.2657 60.0909 69.7349 60.6968C69.3634 61.1008 68.9389 61.3028 68.4082 61.3533C68.0367 61.4038 67.6652 61.3533 67.2937 61.3533C67.3468 61.3028 67.3468 61.2523 67.3998 61.2018C67.6652 60.6968 67.9836 60.2424 68.1959 59.7374C68.5143 59.0809 68.9919 58.677 69.6819 58.6265C70.0534 58.6265 70.4779 58.576 70.9556 58.576Z" fill="#6A4D3E"/>
<path d="M52.7523 61.3533C52.7523 61.3028 52.8054 61.2523 52.8054 61.2523C53.1238 60.6968 53.4423 60.1414 53.7076 59.5354C53.9199 59.0809 54.2914 58.778 54.769 58.7275C55.2997 58.6265 55.8304 58.576 56.4142 58.5255C56.4142 58.6265 56.4673 58.6265 56.4142 58.6265C56.2019 59.0304 55.9897 59.4344 55.7774 59.8889C55.2997 60.9493 54.3445 61.4543 53.1238 61.4038C53.0177 61.4038 52.8585 61.3533 52.7523 61.3533Z" fill="#6A4D3E"/>
<path d="M27.9683 61.3533C26.8007 61.5553 25.6862 61.1513 25.1025 60.0909C24.8371 59.5859 24.6248 59.0809 24.3595 58.576C25.0494 58.6265 25.7924 58.576 26.4292 58.879C26.5884 58.9799 26.8007 59.1314 26.8538 59.2829C27.2784 59.9899 27.5968 60.6463 27.9683 61.3533Z" fill="#6A4D3E"/>
<path d="M33.753 62.1612C33.4345 62.7672 33.1692 63.3731 32.8508 63.9791C32.6385 64.4336 32.267 64.6861 31.7893 64.8375C31.2586 64.989 30.7279 64.9385 30.1972 64.9385C30.5687 64.2821 30.8871 63.6256 31.2586 63.0197C31.5771 62.4642 32.1608 62.2622 32.7977 62.2117C33.1161 62.1107 33.4345 62.1612 33.753 62.1612Z" fill="#6A4D3E"/>
<path d="M41.7669 64.9386C42.1384 64.2821 42.4037 63.7266 42.7752 63.1207C43.1467 62.5147 43.7305 62.2117 44.4735 62.1107C44.7919 62.0602 45.1634 62.1107 45.5349 62.1107C45.4818 62.2117 45.4288 62.2622 45.3757 62.3632C45.1634 62.7672 44.898 63.1207 44.7388 63.5751C44.4204 64.3831 43.8897 64.7871 43.0406 64.8376C42.616 64.8881 42.1914 64.9386 41.7669 64.9386Z" fill="#6A4D3E"/>
<path d="M64.3748 61.3533C64.4279 61.2523 64.481 61.2018 64.481 61.1008C64.7463 60.6463 65.0117 60.1919 65.224 59.6869C65.5424 58.9294 66.1262 58.576 66.8691 58.576C67.2406 58.576 67.6121 58.576 67.9836 58.576C67.9836 58.6265 67.9306 58.677 67.9306 58.677C67.7713 58.9799 67.5591 59.2829 67.4529 59.5859C67.0284 60.7473 66.1792 61.2523 65.0117 61.3028C64.8525 61.4038 64.5871 61.3533 64.3748 61.3533Z" fill="#6A4D3E"/>
<path d="M73.8214 58.5255C73.503 59.1314 73.2907 59.6364 72.9723 60.1414C72.3885 61.1513 71.274 61.5048 70.1595 61.3028C70.531 60.5958 70.9025 59.8889 71.274 59.1819C71.4332 58.879 71.7516 58.7275 72.1231 58.677C72.7069 58.6265 73.2376 58.6265 73.8214 58.5255Z" fill="#6A4D3E"/>
<path d="M68.0367 64.989C67.4529 64.9385 66.9222 64.888 66.4446 64.8375C65.9669 64.7365 65.5954 64.4336 65.3301 63.9791C65.0116 63.3731 64.7463 62.7672 64.4279 62.2117C65.3831 62.0097 66.5507 62.3127 67.0814 63.1712C67.1875 63.3226 67.2406 63.4741 67.3468 63.6256C67.559 64.0296 67.7713 64.4336 68.0367 64.989Z" fill="#6A4D3E"/>
<path d="M33.806 61.3533C33.01 61.4038 32.2139 61.3533 31.5771 60.8483C31.3648 60.6968 31.2056 60.4948 31.0464 60.2928C30.7279 59.7374 30.4626 59.1819 30.1972 58.5759C30.8871 58.5759 31.5771 58.5255 32.2139 58.8789C32.4262 58.9799 32.6385 59.1819 32.7446 59.3839C33.1161 60.0403 33.4345 60.6968 33.806 61.3533Z" fill="#6A4D3E"/>
<path d="M35.9819 58.5255C36.5657 58.576 37.0964 58.6265 37.6271 58.7275C38.1047 58.778 38.4232 59.0809 38.6355 59.5354C38.9008 60.0909 39.2192 60.5958 39.4846 61.1513C39.5907 61.3533 39.5907 61.4038 39.3784 61.4038C38.3701 61.4543 37.2025 61.2018 36.6188 59.9394C36.4065 59.4849 36.1942 59.0304 35.9819 58.5255Z" fill="#6A4D3E"/>
<path d="M62.1994 58.576C61.8809 59.1819 61.6156 59.7879 61.2441 60.3434C60.6603 61.2523 59.7581 61.4543 58.7498 61.4038C58.5905 61.4038 58.5905 61.3028 58.6436 61.1513C58.962 60.5958 59.2805 59.9899 59.5458 59.4344C59.7581 59.0809 60.0235 58.8285 60.3949 58.7275C61.0318 58.576 61.6156 58.576 62.1994 58.576Z" fill="#6A4D3E"/>
<path d="M56.4142 64.9385C55.7774 64.9385 55.1405 64.9385 54.5567 64.7365C54.2383 64.6356 53.973 64.4336 53.8137 64.1306C53.4423 63.4741 53.1238 62.8177 52.8054 62.1612C53.7076 61.9592 54.8221 62.2117 55.3528 63.0197C55.5651 63.3226 55.7243 63.6761 55.9366 64.0296C56.0958 64.2821 56.255 64.5851 56.4142 64.9385Z" fill="#6A4D3E"/>
<path d="M38.9011 58.576C39.5379 58.576 40.1217 58.576 40.7055 58.778C41.0239 58.879 41.3423 59.0809 41.5015 59.4344C41.8199 60.0909 42.1384 60.6968 42.4568 61.3533C41.5546 61.5048 40.4401 61.2523 39.8563 60.4443C39.6971 60.2424 39.591 60.0404 39.4848 59.8384C39.3256 59.4344 39.1133 59.0304 38.9011 58.576Z" fill="#6A4D3E"/>
<path d="M70.2128 62.1612C70.8497 62.0602 71.4865 62.1612 72.0703 62.4137C72.4418 62.6157 72.7602 62.8682 72.9725 63.2722C73.1317 63.5246 73.2378 63.8276 73.3971 64.1306C73.5563 64.3831 73.6624 64.6356 73.8216 64.9385C73.3971 64.989 72.9725 64.989 72.601 64.9385C71.858 64.8375 71.3273 64.4336 71.0089 63.6761C70.7435 63.1207 70.4782 62.6662 70.2128 62.1612Z" fill="#6A4D3E"/>
<path d="M59.2803 58.576C59.015 59.0809 58.8027 59.5859 58.5373 60.0909C58.0597 61.0503 57.2105 61.4038 56.2022 61.4038C56.0961 61.4038 56.043 61.4038 55.9368 61.4038C55.8307 61.4038 55.7246 61.4038 55.5654 61.3533C55.6184 61.2523 55.6715 61.1513 55.7246 61.1008C55.9369 60.7473 56.2022 60.3938 56.3083 59.9899C56.6268 59.1819 57.1575 58.7275 58.0066 58.677C58.4842 58.6265 58.9088 58.576 59.2803 58.576Z" fill="#6A4D3E"/>
<path d="M61.4559 62.1612C62.0928 62.1107 62.7296 62.1107 63.3134 62.4137C63.5788 62.5652 63.8972 62.7672 64.0564 63.0702C64.4279 63.6761 64.6932 64.2821 65.0647 64.9385C64.3218 64.9385 63.5788 64.989 62.9419 64.5851C62.7296 64.4336 62.5174 64.1811 62.3581 63.9286C62.252 63.7266 62.1459 63.4741 62.0397 63.2722C61.9336 62.9187 61.6682 62.5147 61.4559 62.1612Z" fill="#6A4D3E"/>
<path d="M24.4128 64.888C24.6251 64.4336 24.8373 64.0296 25.0496 63.6256C25.6334 62.4642 26.7479 61.9087 28.0216 62.1612V62.2117C27.7562 62.7167 27.4378 63.1712 27.1725 63.6761C26.854 64.3326 26.3764 64.686 25.6865 64.8375C25.2619 64.9385 24.8373 64.989 24.4128 64.888Z" fill="#6A4D3E"/>
<path d="M33.1161 64.9385C33.3815 64.3831 33.6468 63.8781 33.9122 63.3731C34.2837 62.6157 34.9736 62.2622 35.7696 62.2117C36.0881 62.1612 36.4065 62.2117 36.6718 62.2117C36.3534 62.8682 36.035 63.5246 35.6635 64.1811C35.4512 64.5851 35.0797 64.787 34.6552 64.888C34.1244 64.9385 33.5937 64.9385 33.1161 64.9385Z" fill="#6A4D3E"/>
<path d="M59.2803 64.9385C58.5904 64.888 57.9004 64.9385 57.2105 64.6355C56.839 64.4841 56.6268 64.1811 56.5206 63.8276C56.3083 63.3226 56.1491 62.8682 55.7776 62.4642C55.7246 62.4137 55.7246 62.3632 55.6715 62.3127C55.6715 62.3127 55.6715 62.2622 55.6184 62.2117C56.8921 62.0097 58.0066 62.4137 58.4842 63.4236C58.7496 63.8781 59.0149 64.3831 59.2803 64.9385Z" fill="#6A4D3E"/>
<path d="M42.5629 62.1612C42.5099 62.2117 42.5099 62.2622 42.4568 62.3127C42.1914 62.7167 41.9261 63.1206 41.7138 63.5751C41.4484 64.2821 40.9708 64.686 40.2278 64.787C39.8033 64.8375 39.3256 64.888 38.9011 64.888C38.9011 64.8375 38.9011 64.787 38.9011 64.787C39.1664 64.3326 39.3787 63.8781 39.644 63.3731C40.1748 62.3632 41.2362 61.9592 42.5629 62.1612Z" fill="#6A4D3E"/>
<path d="M70.9556 64.9385C70.2657 64.9385 69.5757 64.9385 68.9389 64.6861C68.5674 64.5346 68.3551 64.2821 68.1959 63.9286C67.9836 63.5246 67.8244 63.0702 67.6121 62.6662C67.506 62.4642 67.3998 62.3127 67.2406 62.1612C68.4082 61.9592 69.4165 62.3127 70.0003 63.1712C70.1064 63.3226 70.2657 63.5246 70.3187 63.7266C70.531 64.0801 70.7433 64.4841 70.9556 64.9385Z" fill="#6A4D3E"/>
<path d="M27.2253 64.9385C27.5968 64.2316 27.8621 63.5751 28.3398 62.9692C29.0297 62.1612 29.9319 62.0097 30.9402 62.1107C30.8872 62.2117 30.8341 62.2622 30.781 62.3127C30.5687 62.6662 30.3034 63.0197 30.1442 63.4236C29.8257 64.3326 29.242 64.7365 28.3398 64.787C28.0213 64.888 27.6498 64.888 27.2253 64.9385Z" fill="#6A4D3E"/>
<path d="M52.3811 61.9592C50.2052 61.9592 48.0293 61.9592 45.8534 61.9592C45.8534 61.8582 45.8534 61.8077 45.8534 61.7572C45.8534 61.6058 45.9064 61.5553 46.0656 61.5553C47.8701 61.5553 49.6214 61.5553 51.4258 61.5553C51.6381 61.5553 51.8504 61.5553 52.0626 61.5553C52.3811 61.5553 52.3811 61.5553 52.3811 61.9592Z" fill="#6A4D3E"/>
</svg>
