<svg width="41" height="41" viewBox="0 0 41 41" fill="none" xmlns="http://www.w3.org/2000/svg">
<g clip-path="url(#clip0_248_74)">
<path d="M20.3729 5.84985e-07C31.7849 0.00265799 40.7696 9.01696 40.7772 20.4711C40.7848 31.9439 31.8104 40.9981 20.4291 41C9.01777 41.0019 0.0258655 31.9796 0.0262451 20.5281C0.0270044 9.04885 8.99803 -0.00265682 20.3729 5.84985e-07ZM15.4487 25.5312C10.7831 20.1257 10.3639 15.4145 14.1507 11.6258C17.5306 8.24442 22.8617 8.12104 26.3813 11.3676C27.9882 12.8501 28.9563 14.705 29.1738 16.8871C29.5284 20.4415 28.0983 23.247 25.2033 25.4762C29.0262 27.1883 31.3924 30.0257 32.6957 33.8208C38.1722 29.3681 40.1231 20.6131 37.244 13.5926C34.0912 5.904 26.6952 1.65708 19.3129 2.23982C10.5583 2.93112 4.18926 8.78159 2.48776 17.2378C1.10667 24.1015 4.65241 31.4698 8.18676 33.7016C9.41866 29.919 11.8555 27.1967 15.4487 25.5312ZM20.385 26.8451C15.6939 26.852 11.7291 29.8461 10.3658 34.303C10.0701 35.2695 10.2626 35.7744 11.1175 36.2501C17.3256 39.7043 23.5048 39.7024 29.7083 36.2326C30.5895 35.7398 30.7087 35.2012 30.4277 34.2711C29.0937 29.8582 25.056 26.8383 20.385 26.8451ZM26.9959 17.868C26.9769 14.1735 23.9907 11.2378 20.2916 11.2777C16.6882 11.3168 13.7787 14.312 13.8076 17.9538C13.8364 21.593 16.7854 24.5636 20.3759 24.57C24.0295 24.5765 27.0145 21.5546 26.9959 17.868Z" fill="#493931"/>
</g>
<defs>
<clipPath id="clip0_248_74">
<rect width="41" height="41" fill="white"/>
</clipPath>
</defs>
</svg>
