<svg width="43" height="27" viewBox="0 0 43 27" fill="none" xmlns="http://www.w3.org/2000/svg">
<path d="M0 3.28956C0.176369 2.52559 0.438527 1.78809 1.1428 1.40134C1.61046 1.14448 2.14595 0.894234 2.65909 0.876448C4.46188 0.813163 6.26826 0.831776 8.07265 0.858662C9.26813 0.876448 10.0761 1.52336 10.5841 2.63768C11.2397 4.0767 11.8666 5.53681 12.6279 6.91503C13.2149 7.97806 13.9862 8.93189 14.6885 9.9246C14.7563 10.0206 14.9299 10.1132 15.0256 10.0884C15.1106 10.0661 15.2092 9.87951 15.2108 9.76411C15.2248 8.67626 15.2267 7.58842 15.2096 6.50057C15.2076 6.38186 15.0903 6.21641 14.9829 6.15519C13.7783 5.46526 13.2197 4.24918 13.5325 2.95618C13.8409 1.68013 14.9071 0.854525 16.273 0.85163C18.5534 0.846253 20.8342 0.845426 23.1146 0.85163C24.8352 0.85618 25.9557 2.00318 25.9673 3.78592C25.98 5.83132 25.9669 7.8763 25.9725 9.9217C25.9745 10.6811 26.3803 11.1146 26.994 11.0426C27.389 10.9963 27.5909 10.7059 27.778 10.3899C29.1894 8.00618 30.6019 5.62326 32.0145 3.24034C32.2268 2.88214 32.4354 2.52187 32.6557 2.16904C33.1992 1.29835 33.9773 0.85618 34.9756 0.852457C36.6966 0.846253 38.4176 0.847908 40.1386 0.851217C41.6038 0.854112 42.5491 1.61478 42.9389 3.09185C42.9493 3.13156 42.9793 3.16589 43 3.2027C43 3.49307 43 3.78302 43 4.07339C42.66 4.71493 42.3751 5.39659 41.9709 5.99098C40.3672 8.34784 38.7261 10.6774 37.0988 13.0173C36.606 13.7259 36.6048 13.9811 37.096 14.6867C38.6913 16.979 40.3002 19.261 41.874 21.5691C42.3033 22.1986 42.6277 22.9055 43 23.5773C43 23.8966 43 24.2159 43 24.5352C42.9581 24.6556 42.9154 24.776 42.8739 24.8967C42.4996 25.9929 41.7722 26.7486 40.6517 26.8003C38.7109 26.8892 36.7641 26.852 34.82 26.835C33.8839 26.8267 33.1992 26.3014 32.6385 25.5553C31.0137 23.3916 29.3781 21.2374 27.7469 19.0799C27.7122 19.0344 27.6783 18.9885 27.644 18.9426C27.3786 18.5881 27.0378 18.4309 26.6113 18.5513C26.2274 18.6592 25.9844 19.0187 25.9753 19.5229C25.9609 20.2914 25.9768 21.0607 25.9677 21.8297C25.9633 22.1912 25.9741 22.5618 25.9026 22.9117C25.5116 24.8252 24.2722 25.942 22.562 26.5227C20.6579 27.1696 18.8399 26.8892 17.1441 25.7703C10.9524 21.6845 6.19125 16.2176 2.63835 9.59369C1.8375 8.10049 1.10929 6.56468 0.361116 5.0417C0.210286 4.73479 0.118909 4.39685 0 4.07298C0 3.81198 0 3.55056 0 3.28956ZM17.0271 4.5714C17.0271 5.44623 17.0303 6.24205 17.0263 7.03829C17.0208 8.05334 17.0511 9.07128 16.988 10.083C16.9314 10.9963 16.4083 11.6168 15.5707 11.8889C14.7096 12.169 13.9606 11.9075 13.3833 11.1998C12.932 10.6468 12.5078 10.0681 12.0968 9.48201C10.7976 7.63061 9.82796 5.59183 8.98322 3.48645C8.76855 2.95163 8.419 2.69394 7.85797 2.69725C6.19245 2.70635 4.52692 2.69394 2.8614 2.70304C1.96799 2.708 1.56896 3.37064 1.95921 4.19996C2.44322 5.22866 2.93362 6.25446 3.44238 7.27034C6.9079 14.1908 11.6367 19.9373 18.0191 24.1555C19.2254 24.953 20.4911 25.1979 21.8621 24.8037C23.0991 24.448 24.3109 23.5132 24.1936 21.6973C24.1449 20.9462 24.1721 20.1884 24.1904 19.4344C24.2156 18.4044 24.6353 17.5817 25.4972 17.0498C26.7529 16.2751 28.1595 16.6113 29.1335 17.8973C30.7839 20.0763 32.4243 22.2636 34.0898 24.4306C34.2741 24.6705 34.5894 24.9497 34.8499 24.9559C36.6962 25.001 38.5441 24.9902 40.3912 24.9729C40.8684 24.9683 41.2559 24.5162 41.1928 24.0455C41.1585 23.7878 41.028 23.5218 40.8788 23.3059C39.1442 20.7944 37.3973 18.2915 35.6544 15.7861C34.6863 14.3947 34.6835 13.3048 35.6436 11.9257C37.3953 9.4088 39.1522 6.896 40.8904 4.36914C41.0492 4.13833 41.1721 3.81818 41.1665 3.5427C41.1557 2.99382 40.7523 2.7051 40.0963 2.70262C38.4727 2.69683 36.849 2.71214 35.2258 2.69435C34.6784 2.68815 34.3085 2.89372 34.0228 3.38594C33.0284 5.10043 32.0077 6.79838 30.997 8.50295C30.404 9.50352 29.8163 10.5074 29.2173 11.5038C28.6276 12.485 27.776 12.9991 26.6532 12.9056C25.2235 12.7865 24.2 11.6163 24.1892 10.1058C24.1745 8.01652 24.1876 5.92687 24.1836 3.83721C24.182 3.10881 23.8624 2.7142 23.1929 2.70924C20.8697 2.69187 18.5462 2.69435 16.2231 2.70759C15.6322 2.7109 15.2499 3.0964 15.2355 3.6155C15.2208 4.14247 15.6198 4.53459 16.2227 4.57016C16.4725 4.5834 16.7231 4.5714 17.0271 4.5714Z" fill="#493931"/>
</svg>
